<mxfile host="app.diagrams.net" modified="2023-11-13T07:37:48.501Z" agent="Mozilla/5.0 (Windows NT 10.0; Win64; x64) AppleWebKit/537.36 (KHTML, like Gecko) Chrome/119.0.0.0 Safari/537.36 Edg/119.0.0.0" etag="pigatb8HSAL_0ewxyvdM" version="22.1.0" type="device">
  <diagram id="C5RBs43oDa-KdzZeNtuy" name="Page-1">
    <mxGraphModel dx="727" dy="373" grid="1" gridSize="10" guides="1" tooltips="1" connect="1" arrows="1" fold="1" page="1" pageScale="1" pageWidth="827" pageHeight="1169" math="0" shadow="0">
      <root>
        <mxCell id="WIyWlLk6GJQsqaUBKTNV-0" />
        <mxCell id="WIyWlLk6GJQsqaUBKTNV-1" parent="WIyWlLk6GJQsqaUBKTNV-0" />
        <mxCell id="XaQ8Z6HCapPdMuciq84S-0" value="Начало" style="ellipse;whiteSpace=wrap;html=1;" vertex="1" parent="WIyWlLk6GJQsqaUBKTNV-1">
          <mxGeometry x="310" y="270" width="120" height="80" as="geometry" />
        </mxCell>
        <mxCell id="XaQ8Z6HCapPdMuciq84S-2" value="" style="endArrow=classic;html=1;rounded=0;exitX=0.5;exitY=1;exitDx=0;exitDy=0;" edge="1" parent="WIyWlLk6GJQsqaUBKTNV-1" source="XaQ8Z6HCapPdMuciq84S-0">
          <mxGeometry width="50" height="50" relative="1" as="geometry">
            <mxPoint x="390" y="470" as="sourcePoint" />
            <mxPoint x="370" y="390" as="targetPoint" />
          </mxGeometry>
        </mxCell>
        <mxCell id="XaQ8Z6HCapPdMuciq84S-3" value="Вход: А, Б" style="shape=parallelogram;perimeter=parallelogramPerimeter;whiteSpace=wrap;html=1;fixedSize=1;" vertex="1" parent="WIyWlLk6GJQsqaUBKTNV-1">
          <mxGeometry x="310" y="390" width="120" height="60" as="geometry" />
        </mxCell>
        <mxCell id="XaQ8Z6HCapPdMuciq84S-4" value="" style="endArrow=classic;html=1;rounded=0;exitX=0.5;exitY=1;exitDx=0;exitDy=0;" edge="1" parent="WIyWlLk6GJQsqaUBKTNV-1" source="XaQ8Z6HCapPdMuciq84S-3">
          <mxGeometry width="50" height="50" relative="1" as="geometry">
            <mxPoint x="390" y="540" as="sourcePoint" />
            <mxPoint x="370" y="490" as="targetPoint" />
          </mxGeometry>
        </mxCell>
        <mxCell id="XaQ8Z6HCapPdMuciq84S-5" value="Х = - Б / А" style="rounded=0;whiteSpace=wrap;html=1;" vertex="1" parent="WIyWlLk6GJQsqaUBKTNV-1">
          <mxGeometry x="310" y="490" width="120" height="60" as="geometry" />
        </mxCell>
        <mxCell id="XaQ8Z6HCapPdMuciq84S-7" value="" style="endArrow=classic;html=1;rounded=0;exitX=0.5;exitY=1;exitDx=0;exitDy=0;" edge="1" parent="WIyWlLk6GJQsqaUBKTNV-1" source="XaQ8Z6HCapPdMuciq84S-5" target="XaQ8Z6HCapPdMuciq84S-8">
          <mxGeometry width="50" height="50" relative="1" as="geometry">
            <mxPoint x="360" y="600" as="sourcePoint" />
            <mxPoint x="370" y="590" as="targetPoint" />
          </mxGeometry>
        </mxCell>
        <mxCell id="XaQ8Z6HCapPdMuciq84S-8" value="Изход: Х" style="shape=parallelogram;perimeter=parallelogramPerimeter;whiteSpace=wrap;html=1;fixedSize=1;" vertex="1" parent="WIyWlLk6GJQsqaUBKTNV-1">
          <mxGeometry x="310" y="580" width="120" height="60" as="geometry" />
        </mxCell>
        <mxCell id="XaQ8Z6HCapPdMuciq84S-9" value="" style="endArrow=classic;html=1;rounded=0;exitX=0.466;exitY=1.029;exitDx=0;exitDy=0;exitPerimeter=0;" edge="1" parent="WIyWlLk6GJQsqaUBKTNV-1" source="XaQ8Z6HCapPdMuciq84S-8" target="XaQ8Z6HCapPdMuciq84S-10">
          <mxGeometry width="50" height="50" relative="1" as="geometry">
            <mxPoint x="360" y="710" as="sourcePoint" />
            <mxPoint x="366" y="680" as="targetPoint" />
          </mxGeometry>
        </mxCell>
        <mxCell id="XaQ8Z6HCapPdMuciq84S-10" value="Край" style="ellipse;whiteSpace=wrap;html=1;" vertex="1" parent="WIyWlLk6GJQsqaUBKTNV-1">
          <mxGeometry x="306" y="690" width="120" height="80" as="geometry" />
        </mxCell>
      </root>
    </mxGraphModel>
  </diagram>
</mxfile>
